<?xml version="1.0" encoding="UTF-8"?>
<svg id="Livello_1" xmlns="http://www.w3.org/2000/svg" version="1.1" viewBox="0 0 500 280">
  <!-- Generator: Adobe Illustrator 29.8.0, SVG Export Plug-In . SVG Version: 2.1.1 Build 160)  -->
  <defs>
    <style>
      .st0, .st1, .st2, .st3, .st4, .st5, .st6 {
        isolation: isolate;
      }

      .st0, .st2, .st7 {
        fill: #1a5c2a;
      }

      .st0, .st2, .st4, .st5 {
        font-family: Arial-BoldMT, Arial;
        font-weight: 700;
      }

      .st0, .st4 {
        font-size: 9px;
      }

      .st1, .st3 {
        font-size: 7px;
      }

      .st1, .st3, .st6 {
        font-family: ArialMT, Arial;
      }

      .st1, .st6 {
        fill: #c8e6c9;
      }

      .st2 {
        font-size: 10px;
      }

      .st7 {
        stroke: #fff;
      }

      .st7, .st8, .st9 {
        stroke-width: 2px;
      }

      .st10, .st8 {
        stroke: #237a38;
      }

      .st10, .st4, .st5 {
        fill: #fff;
      }

      .st10, .st11 {
        stroke-width: 1.5px;
      }

      .st3 {
        fill: #6b7280;
      }

      .st8, .st9 {
        fill: none;
      }

      .st5 {
        font-size: 13px;
      }

      .st11 {
        fill: #237a38;
        stroke: #1a5c2a;
      }

      .st12 {
        fill: #c9a227;
      }

      .st6 {
        font-size: 8px;
      }

      .st9 {
        stroke: #c9a227;
      }
    </style>
  </defs>
  <circle class="st7" cx="250" cy="100" r="36"/>
  <text class="st5" transform="translate(229.41 96)"><tspan x="0" y="0">CE / IS</tspan></text>
  <text class="st6" transform="translate(230 110)"><tspan x="0" y="0">Framework</tspan></text>
  <line class="st8" x1="250" y1="64" x2="250" y2="30"/>
  <line class="st8" x1="214" y1="100" x2="110" y2="100"/>
  <line class="st8" x1="286" y1="100" x2="390" y2="100"/>
  <rect class="st11" x="175" y="6" width="150" height="28" rx="8" ry="8"/>
  <text class="st4" transform="translate(197.49 19)"><tspan x="0" y="0">Self-organized Networks</tspan></text>
  <text class="st1" transform="translate(223.55 30)"><tspan x="0" y="0">market dynamics</tspan></text>
  <rect class="st11" x="18" y="82" width="150" height="36" rx="8" ry="8"/>
  <text class="st4" transform="translate(43.98 98)"><tspan x="0" y="0">Centrally Planned EIPs</tspan></text>
  <text class="st1" transform="translate(61.16 110)"><tspan x="0" y="0">governmental efforts</tspan></text>
  <rect class="st11" x="332" y="82" width="150" height="36" rx="8" ry="8"/>
  <text class="st4" transform="translate(363.24 98)"><tspan x="0" y="0">Facilitated Networks</tspan></text>
  <text class="st1" transform="translate(379.96 110)"><tspan x="0" y="0">intermediary orgs</tspan></text>
  <circle class="st12" cx="250" cy="65" r="3"/>
  <circle class="st12" cx="215" cy="100" r="3"/>
  <circle class="st12" cx="285" cy="100" r="3"/>
  <text class="st0" transform="translate(200.5 160)"><tspan x="0" y="0">Evolution of Circularity</tspan></text>
  <rect class="st10" x="60" y="175" width="100" height="42" rx="6" ry="6"/>
  <text class="st2" transform="translate(95.92 192)"><tspan x="0" y="0">Type I</tspan></text>
  <text class="st3" transform="translate(101.44 208)"><tspan x="0" y="0">linear</tspan></text>
  <line class="st9" x1="165" y1="196" x2="190" y2="196"/>
  <polygon class="st12" points="190 192 198 196 190 200 190 192"/>
  <rect class="st10" x="200" y="175" width="100" height="42" rx="6" ry="6"/>
  <text class="st2" transform="translate(234.53 192)"><tspan x="0" y="0">Type II</tspan></text>
  <text class="st3" transform="translate(229.19 208)"><tspan x="0" y="0">quasi-circular</tspan></text>
  <line class="st9" x1="305" y1="196" x2="330" y2="196"/>
  <polygon class="st12" points="330 192 338 196 330 200 330 192"/>
  <rect class="st10" x="340" y="175" width="100" height="42" rx="6" ry="6"/>
  <text class="st2" transform="translate(373.14 192)"><tspan x="0" y="0">Type III</tspan></text>
  <text class="st3" transform="translate(371.52 208)"><tspan x="0" y="0">fully circular</tspan></text>
</svg>