<svg xmlns="http://www.w3.org/2000/svg" viewBox="0 0 500 280" font-family="Arial,sans-serif">
                                <!-- Title -->
                                <text x="250" y="20" text-anchor="middle" fill="#1a5c2a" font-size="12" font-weight="bold">Stakeholder Roles in IS/CE Systems</text>
                                <!-- 4 stakeholder rows -->
                                <!-- Row 1: Government -->
                                <rect x="20" y="42" width="180" height="40" rx="8" fill="#1a5c2a"/>
                                <text x="110" y="67" text-anchor="middle" fill="#ffffff" font-size="11" font-weight="bold">Government &amp; Institutions</text>
                                <line x1="200" y1="62" x2="280" y2="62" stroke="#c9a227" stroke-width="2"/>
                                <polygon points="278,57 286,62 278,67" fill="#c9a227"/>
                                <rect x="290" y="48" width="190" height="28" rx="6" fill="#ffffff" stroke="#c9a227" stroke-width="1.5"/>
                                <text x="385" y="66" text-anchor="middle" fill="#1a5c2a" font-size="9">Regulation &amp; policy frameworks</text>
                                <!-- Row 2: Firms -->
                                <rect x="20" y="98" width="180" height="40" rx="8" fill="#237a38"/>
                                <text x="110" y="123" text-anchor="middle" fill="#ffffff" font-size="11" font-weight="bold">Firms &amp; Companies</text>
                                <line x1="200" y1="118" x2="280" y2="118" stroke="#c9a227" stroke-width="2"/>
                                <polygon points="278,113 286,118 278,123" fill="#c9a227"/>
                                <rect x="290" y="104" width="190" height="28" rx="6" fill="#ffffff" stroke="#c9a227" stroke-width="1.5"/>
                                <text x="385" y="122" text-anchor="middle" fill="#1a5c2a" font-size="9">Production &amp; material exchange</text>
                                <!-- Row 3: Intermediary -->
                                <rect x="20" y="154" width="180" height="40" rx="8" fill="#2d8f45"/>
                                <text x="110" y="179" text-anchor="middle" fill="#ffffff" font-size="11" font-weight="bold">Intermediary Organizations</text>
                                <line x1="200" y1="174" x2="280" y2="174" stroke="#c9a227" stroke-width="2"/>
                                <polygon points="278,169 286,174 278,179" fill="#c9a227"/>
                                <rect x="290" y="160" width="190" height="28" rx="6" fill="#ffffff" stroke="#c9a227" stroke-width="1.5"/>
                                <text x="385" y="178" text-anchor="middle" fill="#1a5c2a" font-size="9">Facilitation &amp; information sharing</text>
                                <!-- Row 4: Community -->
                                <rect x="20" y="210" width="180" height="40" rx="8" fill="#6b7280"/>
                                <text x="110" y="235" text-anchor="middle" fill="#ffffff" font-size="11" font-weight="bold">Community &amp; Civil Society</text>
                                <line x1="200" y1="230" x2="280" y2="230" stroke="#c9a227" stroke-width="2"/>
                                <polygon points="278,225 286,230 278,235" fill="#c9a227"/>
                                <rect x="290" y="216" width="190" height="28" rx="6" fill="#ffffff" stroke="#c9a227" stroke-width="1.5"/>
                                <text x="385" y="234" text-anchor="middle" fill="#1a5c2a" font-size="9">Engagement &amp; social acceptance</text>
                                <!-- Key insight bar -->
                                <rect x="20" y="260" width="460" height="16" rx="4" fill="#e8f5e9"/>
                                <text x="250" y="272" text-anchor="middle" fill="#1a5c2a" font-size="8" font-weight="bold">Trust mechanisms &amp; information infrastructure require deliberate development</text>
                            </svg>