<?xml version="1.0" encoding="UTF-8"?>
<svg id="Livello_1" xmlns="http://www.w3.org/2000/svg" version="1.1" viewBox="0 0 500 280">
  <!-- Generator: Adobe Illustrator 29.8.0, SVG Export Plug-In . SVG Version: 2.1.1 Build 160)  -->
  <defs>
    <style>
      .st0 {
        opacity: .5;
      }

      .st0, .st1, .st2, .st3, .st4, .st5, .st6, .st7, .st8, .st9, .st10, .st11 {
        isolation: isolate;
      }

      .st0, .st1, .st4, .st12 {
        fill: #1a5c2a;
      }

      .st1 {
        font-size: 13px;
      }

      .st1, .st2, .st3, .st4, .st8, .st10 {
        font-family: Arial-BoldMT, Arial;
        font-weight: 700;
      }

      .st2, .st4, .st10 {
        font-size: 10px;
      }

      .st2, .st13, .st14 {
        fill: #c9a227;
      }

      .st3 {
        fill: #6b7280;
        font-size: 11px;
      }

      .st15, .st16, .st8, .st11 {
        fill: #fff;
      }

      .st5 {
        fill: #dbeafe;
      }

      .st5, .st6, .st7, .st8, .st9 {
        font-size: 9px;
      }

      .st5, .st6, .st7, .st9 {
        font-family: ArialMT, Arial;
      }

      .st6 {
        fill: #fff8e1;
      }

      .st16, .st17, .st18, .st12, .st19, .st20, .st21, .st22, .st13, .st23, .st24 {
        stroke-width: 1.5px;
      }

      .st16, .st21 {
        stroke: #c8e6c9;
      }

      .st17 {
        fill: #2d8f45;
      }

      .st17, .st22, .st24 {
        stroke: #1a5c2a;
      }

      .st7 {
        fill: #e8f5e9;
      }

      .st25 {
        stroke-linecap: round;
        stroke-width: 2px;
      }

      .st25, .st18, .st20, .st21, .st23, .st24 {
        fill: none;
      }

      .st25, .st23 {
        stroke: #fff;
      }

      .st18 {
        stroke: #237a38;
      }

      .st12 {
        stroke: #0f3d18;
      }

      .st9 {
        fill: #c8e6c9;
      }

      .st26 {
        fill: #1d1d1b;
        stroke: #000;
        stroke-miterlimit: 10;
      }

      .st19 {
        fill: #2563eb;
        stroke: #1d4ed8;
      }

      .st20 {
        stroke: #c9a227;
      }

      .st22, .st10, .st27 {
        fill: #237a38;
      }

      .st13 {
        stroke: #a88520;
      }

      .st11 {
        opacity: .8;
      }
    </style>
  </defs>
  <text class="st1" transform="translate(153.2 22)"><tspan x="0" y="0">Modular Guidelines Framework</tspan></text>
  <rect class="st17" x="10" y="35" width="85" height="80" rx="10" ry="10"/>
  <circle class="st23" cx="52" cy="57" r="10"/>
  <line class="st23" x1="52" y1="51" x2="52" y2="61"/>
  <circle class="st15" cx="52" cy="49" r="2"/>
  <text class="st8" transform="translate(26.32 83)"><tspan x="0" y="0">1. Territorial</tspan></text>
  <text class="st7" transform="translate(36.49 95)"><tspan x="0" y="0">Context</tspan></text>
  <polygon class="st26" points="427 75 415 80 415 70 427 75"/>
  <rect class="st19" x="115" y="35" width="85" height="80" rx="10" ry="10"/>
  <path class="st23" d="M158,52h10M163,47l5,5-5,5M158,62h-10M153,57l-5,5,5,5"/>
  <text class="st8" transform="translate(132 83)"><tspan x="0" y="0">2. I/O Flows</tspan></text>
  <text class="st5" transform="translate(140.24 95)"><tspan x="0" y="0">Analysis</tspan></text>
  <polygon class="st26" points="322 75 310 80 310 70 322 75"/>
  <rect class="st13" x="220" y="35" width="85" height="80" rx="10" ry="10"/>
  <circle class="st23" cx="262" cy="57" r="10"/>
  <line class="st25" x1="262" y1="57" x2="268" y2="51"/>
  <circle class="st15" cx="262" cy="57" r="2"/>
  <text class="st8" transform="translate(235.49 83)"><tspan x="0" y="0">3. Indicators</tspan></text>
  <text class="st6" transform="translate(237.49 95)"><tspan x="0" y="0">Assessment</tspan></text>
  <polygon class="st26" points="217 75 205 80 205 70 217 75"/>
  <rect class="st22" x="325" y="35" width="85" height="80" rx="10" ry="10"/>
  <path class="st15" d="M365,49h12c.55,0,1,.45,1,1h0c0,.55-.45,1-1,1h-12c-.55,0-1-.45-1-1h0c0-.55.45-1,1-1Z"/>
  <path class="st15" d="M365,55h12c.55,0,1,.45,1,1h0c0,.55-.45,1-1,1h-12c-.55,0-1-.45-1-1h0c0-.55.45-1,1-1Z"/>
  <path class="st15" d="M365,61h12c.55,0,1,.45,1,1h0c0,.55-.45,1-1,1h-12c-.55,0-1-.45-1-1h0c0-.55.45-1,1-1Z"/>
  <path class="st15" d="M360,49h1c.55,0,1,.45,1,1h0c0,.55-.45,1-1,1h-1c-.55,0-1-.45-1-1h0c0-.55.45-1,1-1Z"/>
  <path class="st15" d="M360,55h1c.55,0,1,.45,1,1h0c0,.55-.45,1-1,1h-1c-.55,0-1-.45-1-1h0c0-.55.45-1,1-1Z"/>
  <path class="st15" d="M360,61h1c.55,0,1,.45,1,1h0c0,.55-.45,1-1,1h-1c-.55,0-1-.45-1-1h0c0-.55.45-1,1-1Z"/>
  <text class="st8" transform="translate(337.41 83)"><tspan x="0" y="0">4. Action Plan</tspan></text>
  <text class="st9" transform="translate(347.49 95)"><tspan x="0" y="0">Roadmap</tspan></text>
  <polygon class="st26" points="112 75 100 80 100 70 112 75"/>
  <rect class="st12" x="430" y="35" width="60" height="80" rx="10" ry="10"/>
  <rect class="st11" x="449" y="49" width="6" height="10" rx="1" ry="1"/>
  <rect class="st11" x="458" y="45" width="6" height="14" rx="1" ry="1"/>
  <rect class="st11" x="467" y="51" width="6" height="8" rx="1" ry="1"/>
  <text class="st8" transform="translate(438.5 83)"><tspan x="0" y="0">5. Monitor</tspan></text>
  <text class="st9" transform="translate(437.99 95)"><tspan x="0" y="0">Dashboard</tspan></text>
  <line class="st21" x1="52" y1="129" x2="460" y2="129"/>
  <text class="st3" transform="translate(197.53 148)"><tspan x="0" y="0">Target Stakeholders</tspan></text>
  <rect class="st16" x="50" y="162" width="100" height="60" rx="10" ry="10"/>
  <rect class="st24" x="92" y="172" width="16" height="12" rx="2" ry="2"/>
  <rect class="st0" x="88" y="182" width="24" height="4" rx="1" ry="1"/>
  <line class="st24" x1="100" y1="184" x2="100" y2="172"/>
  <text class="st4" transform="translate(67.76 208)"><tspan x="0" y="0">Policymakers</tspan></text>
  <rect class="st16" x="200" y="162" width="100" height="60" rx="10" ry="10"/>
  <circle class="st18" cx="250" cy="178" r="8"/>
  <circle class="st27" cx="250" cy="178" r="2"/>
  <line class="st18" x1="255" y1="173" x2="258" y2="170"/>
  <text class="st10" transform="translate(220.63 208)"><tspan x="0" y="0">IP Managers</tspan></text>
  <rect class="st16" x="350" y="162" width="100" height="60" rx="10" ry="10"/>
  <rect class="st20" x="390" y="176" width="20" height="12" rx="1" ry="1"/>
  <rect class="st14" x="394" y="172" width="4" height="4" rx="1" ry="1"/>
  <line class="st20" x1="404" y1="170" x2="404" y2="176"/>
  <text class="st2" transform="translate(373.05 208)"><tspan x="0" y="0">Companies</tspan></text>
</svg>